<?xml version="1.0" standalone="no"?>
<!DOCTYPE svg PUBLIC "-//W3C//DTD SVG 20010904//EN"
 "http://www.w3.org/TR/2001/REC-SVG-20010904/DTD/svg10.dtd">
<svg version="1.0" xmlns="http://www.w3.org/2000/svg"
 width="207.000000pt" height="49.000000pt" viewBox="0 0 207.000000 49.000000"
 preserveAspectRatio="xMidYMid meet">

<g transform="translate(0.000000,49.000000) scale(0.100000,-0.100000)"
fill="#000000" stroke="none">
<path d="M309 338 c-9 -7 -28 -44 -44 -83 -15 -38 -31 -74 -36 -78 -7 -9 -78
60 -79 75 0 5 16 26 36 48 l36 40 -36 0 c-31 0 -40 -6 -66 -42 l-30 -41 0 41
c0 40 -1 42 -30 42 l-30 0 0 -90 0 -90 31 0 c31 0 31 1 27 45 -2 25 -1 45 2
45 3 0 19 -21 35 -45 l30 -45 66 0 66 0 22 60 c12 33 24 60 26 60 2 0 14 -27
26 -60 20 -54 24 -60 50 -60 16 0 29 2 29 5 0 3 -14 40 -32 83 -30 75 -50 102
-73 102 -6 0 -18 -6 -26 -12z"/>
<path d="M580 330 c-10 -10 -29 -38 -42 -62 l-23 -43 -3 58 c-3 56 -4 57 -32
57 l-30 0 0 -77 c0 -82 5 -100 30 -103 36 -5 48 3 74 50 39 71 49 73 44 6 -3
-55 -3 -56 25 -56 l27 0 0 85 c0 73 -3 86 -19 95 -26 13 -28 13 -51 -10z"/>
<path d="M1022 330 c-11 -12 -27 -39 -37 -60 -25 -56 -36 -50 -29 15 l7 55
-32 0 -31 0 0 -85 c0 -70 3 -86 18 -93 29 -16 56 3 87 59 l30 54 3 -57 c3 -57
4 -58 32 -58 l30 0 0 79 c0 105 -31 141 -78 91z"/>
<path d="M681 250 l2 -90 28 0 c26 0 29 3 29 35 0 33 2 35 35 35 33 0 35 -2
35 -35 0 -32 2 -35 30 -35 l30 0 0 90 0 90 -30 0 c-27 0 -30 -3 -30 -30 0 -28
-3 -30 -35 -30 -32 0 -35 2 -35 30 0 27 -3 30 -31 30 l-30 0 2 -90z"/>
<path d="M1130 250 l0 -90 28 0 c26 0 28 2 24 35 -4 34 -3 35 32 35 34 0 36
-1 36 -35 0 -32 2 -35 30 -35 l30 0 0 90 0 90 -30 0 c-27 0 -30 -3 -30 -30 0
-28 -3 -30 -36 -30 -35 0 -36 1 -32 30 4 27 2 30 -24 30 l-28 0 0 -90z"/>
<path d="M1347 333 c-4 -3 -7 -44 -7 -90 l0 -83 30 0 30 0 0 70 0 70 55 0 c48
0 55 2 55 20 0 18 -7 20 -78 20 -43 0 -82 -3 -85 -7z"/>
</g>
</svg>
